<svg xmlns="http://www.w3.org/2000/svg" viewBox="0 0 800 460" preserveAspectRatio="xMidYMid slice">
<defs>
<linearGradient id="sky" x1="0" y1="0" x2="0" y2="1"><stop offset="0" stop-color="#05061a"/><stop offset="0.4" stop-color="#141d4d"/><stop offset="0.72" stop-color="#3a2f6a"/><stop offset="1" stop-color="#6d4a7e"/></linearGradient>
<radialGradient id="moon" cx="0.5" cy="0.5" r="0.5"><stop offset="0" stop-color="#fdfdff"/><stop offset="0.5" stop-color="#dfe6ff"/><stop offset="1" stop-color="#aab6e0" stop-opacity="0"/></radialGradient>
<linearGradient id="r1" x1="0" y1="0" x2="0" y2="1"><stop offset="0" stop-color="#3a3568"/><stop offset="1" stop-color="#282450"/></linearGradient>
<linearGradient id="r2" x1="0" y1="0" x2="0" y2="1"><stop offset="0" stop-color="#221f45"/><stop offset="1" stop-color="#15132e"/></linearGradient>
<linearGradient id="r3" x1="0" y1="0" x2="0" y2="1"><stop offset="0" stop-color="#100e22"/><stop offset="1" stop-color="#070512"/></linearGradient>
</defs>
<rect width="800" height="460" fill="url(#sky)"/>
<g fill="#ffffff"><circle cx="70" cy="46" r="1.5" opacity="0.9"/><circle cx="140" cy="70" r="1" opacity="0.7"/><circle cx="210" cy="40" r="1.3" opacity="0.85"/><circle cx="300" cy="64" r="1" opacity="0.6"/><circle cx="380" cy="38" r="1.4" opacity="0.9"/><circle cx="120" cy="110" r="1" opacity="0.7"/><circle cx="250" cy="104" r="0.9" opacity="0.6"/><circle cx="440" cy="88" r="1.1" opacity="0.8"/><circle cx="520" cy="52" r="1" opacity="0.65"/><circle cx="175" cy="150" r="0.9" opacity="0.55"/><circle cx="330" cy="130" r="1" opacity="0.6"/></g>
<circle cx="600" cy="120" r="120" fill="url(#moon)"/>
<circle cx="600" cy="120" r="34" fill="#f4f6ff"/>
<circle cx="614" cy="110" r="32" fill="#3a2f6a" opacity="0.55"/>
<path d="M0 252 L120 182 L235 240 L360 156 L480 244 L600 156 L720 230 L800 182 L800 460 L0 460 Z" fill="url(#r1)"/>
<path d="M0 306 L120 256 L240 308 L360 244 L480 312 L600 256 L720 316 L800 272 L800 460 L0 460 Z" fill="url(#r2)"/>
<g fill="#c6d0f0" opacity="0.14"><ellipse cx="250" cy="308" rx="180" ry="14"/><ellipse cx="600" cy="318" rx="210" ry="16"/></g>
<path d="M0 366 L150 304 L270 360 L390 288 L520 364 L660 318 L800 374 L800 460 L0 460 Z" fill="url(#r3)"/>
<g fill="#05040e"><path d="M58 460 L76 380 L94 460 Z"/><path d="M90 460 L106 402 L122 460 Z"/><path d="M700 460 L718 386 L736 460 Z"/><path d="M735 460 L749 410 L763 460 Z"/></g>
</svg>
