<svg xmlns="http://www.w3.org/2000/svg" viewBox="0 0 800 460" preserveAspectRatio="xMidYMid slice">
<defs>
<linearGradient id="sky" x1="0" y1="0" x2="0" y2="1"><stop offset="0" stop-color="#1b1147"/><stop offset="0.34" stop-color="#6a2a7a"/><stop offset="0.6" stop-color="#e05a6b"/><stop offset="0.82" stop-color="#ff9a52"/><stop offset="1" stop-color="#ffd98a"/></linearGradient>
<radialGradient id="sun" cx="0.5" cy="0.5" r="0.5"><stop offset="0" stop-color="#fff7e0"/><stop offset="0.45" stop-color="#ffd36b"/><stop offset="1" stop-color="#ffb04a" stop-opacity="0"/></radialGradient>
<linearGradient id="r1" x1="0" y1="0" x2="0" y2="1"><stop offset="0" stop-color="#8a4f92"/><stop offset="1" stop-color="#5c356a"/></linearGradient>
<linearGradient id="r2" x1="0" y1="0" x2="0" y2="1"><stop offset="0" stop-color="#4a2b5c"/><stop offset="1" stop-color="#331f45"/></linearGradient>
<linearGradient id="r3" x1="0" y1="0" x2="0" y2="1"><stop offset="0" stop-color="#241634"/><stop offset="1" stop-color="#140c20"/></linearGradient>
</defs>
<rect width="800" height="460" fill="url(#sky)"/>
<g fill="#ffffff" opacity="0.7"><circle cx="80" cy="50" r="1.6"/><circle cx="165" cy="30" r="1.2"/><circle cx="250" cy="60" r="1.4"/><circle cx="330" cy="36" r="1"/><circle cx="60" cy="98" r="1.1"/><circle cx="205" cy="92" r="1"/><circle cx="120" cy="66" r="0.9"/><circle cx="290" cy="110" r="0.9"/></g>
<circle cx="560" cy="158" r="155" fill="url(#sun)"/>
<circle cx="560" cy="158" r="46" fill="#fff2cf"/>
<path d="M0 250 L120 180 L230 236 L350 158 L470 240 L590 150 L710 226 L800 176 L800 460 L0 460 Z" fill="url(#r1)"/>
<path d="M0 302 L110 250 L220 302 L330 236 L450 306 L560 250 L690 312 L800 266 L800 460 L0 460 Z" fill="url(#r2)"/>
<g fill="#ffd9c0" opacity="0.26"><ellipse cx="220" cy="302" rx="185" ry="15"/><ellipse cx="570" cy="314" rx="225" ry="18"/></g>
<path d="M0 362 L140 300 L260 356 L380 284 L520 360 L660 316 L800 372 L800 460 L0 460 Z" fill="url(#r3)"/>
<g fill="#0d0819"><path d="M58 460 L76 378 L94 460 Z"/><path d="M90 460 L106 400 L122 460 Z"/><path d="M700 460 L718 384 L736 460 Z"/><path d="M735 460 L749 408 L763 460 Z"/></g>
</svg>
